<?xml version="1.0" encoding="UTF-8"?>
<svg version="1.1" xmlns="http://www.w3.org/2000/svg" width="1024" height="1024">
<path d="M0 0 C22.11 0 44.22 0 67 0 C67 43.89 67 87.78 67 133 C90.43 133 113.86 133 138 133 C138 155.11 138 177.22 138 200 C114.57 200 91.14 200 67 200 C67.12685363 221.64579609 67.12685363 221.64579609 67.27233124 243.29144478 C67.32757809 251.03720924 67.380056 258.78295874 67.421875 266.52880859 C67.45857179 273.32403055 67.50533525 280.11912559 67.55806351 286.91424179 C67.57650395 289.49835958 67.59164948 292.08250319 67.60334396 294.66666031 C67.74657586 325.2403203 71.44392393 352.66649309 93 376 C94.00933594 377.14662109 94.00933594 377.14662109 95.0390625 378.31640625 C110.00550443 394.43195701 131.44238855 403.32685867 153 406 C155.25265585 406.08185452 157.50733636 406.11791942 159.76147461 406.11352539 C161.06229477 406.11344986 162.36311493 406.11337433 163.70335388 406.11329651 C165.10301757 406.10819141 166.50268086 406.10297544 167.90234375 406.09765625 C169.34965465 406.09578866 170.79696619 406.09436637 172.24427795 406.09336853 C176.0335976 406.08957018 179.82287826 406.0797631 183.61218262 406.06866455 C187.48689242 406.05839247 191.3616086 406.05385854 195.23632812 406.04882812 C202.82423643 406.03813816 210.41211273 406.02109434 218 406 C217.52219589 405.32231064 217.04439178 404.64462128 216.55210876 403.94639587 C215.92381668 403.05263748 215.2955246 402.15887909 214.64819336 401.23803711 C214.02601425 400.35409775 213.40383514 399.47015839 212.76280212 398.55943298 C195.07564869 372.87924843 184.32958227 340.23236168 185 309 C186.24136719 308.96261719 187.48273438 308.92523437 188.76171875 308.88671875 C190.40367511 308.8210405 192.04560087 308.7545938 193.6875 308.6875 C194.50412109 308.66494141 195.32074219 308.64238281 196.16210938 308.61914062 C200.88777984 308.40868566 204.14536377 308.02059213 208 305 C209.95808905 302.41888261 210.02177872 301.26134464 209.75 298 C209.1669774 295.09993733 209.1669774 295.09993733 207.9375 293.125 C206.46791737 289.79394603 206.43542649 286.53708703 207 283 C209.01502889 279.24787724 210.45466142 277.36355905 214 275 C218.81540624 274.52635348 221.05114955 274.50800347 225.375 276.75 C229.08761403 279.9322406 229.85473654 281.46020732 230.3125 286.3125 C230 290 230 290 228.4375 293.5 C226.74908648 297.61091988 226.85447541 299.74519438 228 304 C229.89533875 306.58455285 230.88826517 306.96275506 234 308 C235.40664926 308.14492123 236.8181133 308.24628931 238.23046875 308.31640625 C239.03291016 308.35830078 239.83535156 308.40019531 240.66210938 308.44335938 C241.91217773 308.50233398 241.91217773 308.50233398 243.1875 308.5625 C244.03248047 308.60568359 244.87746094 308.64886719 245.74804688 308.69335938 C247.83184433 308.79931518 249.91590103 308.9001502 252 309 C252.12528076 309.65895264 252.25056152 310.31790527 252.37963867 310.99682617 C256.71268281 333.50310939 262.7177287 353.41891247 278 371 C278.4434375 371.58652344 278.886875 372.17304687 279.34375 372.77734375 C289.23071329 385.58819557 305.37072864 394.82329767 320.3125 400.3125 C320.92649658 400.54300049 321.54049316 400.77350098 322.1730957 401.01098633 C337.34313539 406.20892493 353.03030256 406.46427368 368.87890625 406.51171875 C371.02938331 406.52860608 373.17985074 406.5467616 375.33030701 406.56611633 C380.93111154 406.61318273 386.53187705 406.64327055 392.1328125 406.66955566 C398.88469078 406.70488191 405.63641924 406.76176851 412.38817596 406.81494904 C422.59209695 406.89295305 432.79582875 406.94394375 443 407 C443 429.44 443 451.88 443 475 C406.44720632 475.08836976 369.89451432 475.1621537 333.34164419 475.20426132 C329.01511612 475.20926346 324.68858828 475.21444082 320.36206055 475.21972656 C319.07019283 475.22130043 319.07019283 475.22130043 317.75222678 475.22290608 C303.85176435 475.24025752 289.95136886 475.27176581 276.05094599 475.30861118 C261.7618323 475.34616775 247.47275339 475.36826676 233.18359238 475.37635398 C224.38377934 475.38181143 215.58415558 475.39897568 206.78440089 475.43166587 C200.73001084 475.45299602 194.67571702 475.4591588 188.62129223 475.45400551 C185.14093059 475.45147208 181.66089696 475.45503613 178.1805954 475.4768219 C157.52877016 475.58684864 137.3676809 474.31855745 117.75 467.3125 C116.26862549 466.79768066 116.26862549 466.79768066 114.75732422 466.27246094 C93.63757269 458.73917112 74.85981487 447.84174612 58 433 C57.00484375 432.13761719 56.0096875 431.27523438 54.984375 430.38671875 C48.24824884 424.45384785 42.47250801 418.14022487 37 411 C35.90945313 409.63294922 35.90945313 409.63294922 34.796875 408.23828125 C12.14412192 379.20949102 -0.23701456 342.93355869 -0.11352539 306.14624023 C-0.11367142 304.99400467 -0.11381744 303.8417691 -0.1139679 302.65461731 C-0.11327512 298.87258984 -0.10551257 295.09061254 -0.09765625 291.30859375 C-0.09578981 288.67586799 -0.09436698 286.04314188 -0.09336853 283.41041565 C-0.09027148 277.20582937 -0.08208019 271.00126089 -0.07201904 264.79668242 C-0.05970549 257.03307817 -0.05426244 249.26947097 -0.04882812 241.50585938 C-0.0391137 227.67055908 -0.01907732 213.83529759 0 200 C-19.8 200 -39.6 200 -60 200 C-60 177.89 -60 155.78 -60 133 C-40.2 133 -20.4 133 0 133 C0 89.11 0 45.22 0 0 Z " fill="#0866FF" transform="translate(320,274)"/>
<path d="M0 0 C2.32124842 0.00748687 4.64250329 0.01316817 6.96376038 0.01715088 C12.98884422 0.032215 19.0135246 0.0713243 25.03845215 0.1159668 C32.31259069 0.16465226 39.58686632 0.18254528 46.86112213 0.20578003 C57.83607831 0.24419221 68.8101543 0.3209793 79.78515625 0.390625 C79.78515625 22.500625 79.78515625 44.610625 79.78515625 67.390625 C72.81261719 67.42800781 65.84007812 67.46539062 58.65625 67.50390625 C54.21286692 67.53421749 49.76952236 67.56538603 45.32617188 67.59960938 C38.28883924 67.65373134 31.25158281 67.7048485 24.21411133 67.73706055 C18.53404514 67.76325934 12.85423802 67.80377662 7.17433357 67.85381126 C5.0180899 67.87036864 2.86180154 67.88195163 0.70550346 67.88823891 C-11.30471683 67.92676779 -22.54761953 68.36133588 -34.21484375 71.390625 C-35.3687989 71.6862307 -35.3687989 71.6862307 -36.54606628 71.98780823 C-50.82726817 75.95187158 -62.76338031 83.14881014 -74.21484375 92.390625 C-75.00632812 93.01582031 -75.7978125 93.64101563 -76.61328125 94.28515625 C-98.21334864 112.28521241 -107.74312755 139.31123866 -111.21484375 166.390625 C-115.11650713 166.69663781 -117.5667267 166.73605002 -121.05859375 164.875 C-123.84435526 161.66531826 -124.23468137 158.71729774 -124.71484375 154.640625 C-125.80406677 147.58766775 -127.079021 141.81860522 -132.8125 137.06640625 C-137.63442881 133.93599688 -142.89755714 132.71272053 -148.546875 133.8671875 C-153.88378433 135.47799596 -158.37380176 137.34510469 -161.3671875 142.296875 C-163.82502511 147.26503074 -164.52479264 151.60220271 -164.875 157.0859375 C-165.40755752 160.69753445 -166.87614501 162.62670831 -169.21484375 165.390625 C-172.17148894 166.8689476 -174.95714112 166.45095283 -178.21484375 166.390625 C-178.36329575 159.79188999 -178.04359214 153.47399724 -177.02734375 146.953125 C-176.89352295 146.09332031 -176.75970215 145.23351562 -176.62182617 144.34765625 C-169.46667672 100.72316845 -145.83746367 59.96541271 -109.98876953 33.67114258 C-76.74667215 9.99530657 -40.70028691 -0.3938375 0 0 Z " fill="#FF5733" transform="translate(683.21484375,406.609375)"/>
</svg>
