<?xml version="1.0" encoding="UTF-8"?>
<svg id="Layer_2" data-name="Layer 2" xmlns="http://www.w3.org/2000/svg" xmlns:xlink="http://www.w3.org/1999/xlink" viewBox="0 0 818.34 799.46">
  <defs>
    <style>
      .cls-1 {
        fill: url(#linear-gradient);
      }
    </style>
    <linearGradient id="linear-gradient" x1="82.48" y1="135.11" x2="713.44" y2="655.6" gradientUnits="userSpaceOnUse">
      <stop offset=".46" stop-color="#fd5531"/>
      <stop offset=".72" stop-color="#0d63f4"/>
    </linearGradient>
  </defs>
  <g id="Layer_1-2" data-name="Layer 1">
    <path class="cls-1" d="M151.1,455.57l-52.66,7.33c-7.89,1.1-13.89-7.48-16.07-13.65-2.4-6.81-1.13-12.21,2.74-17.62,8.06-11.29,11.11-24.94,9.39-38.65-1.37-10.89-6.45-19.54-11.93-28.71-3.48-5.83-.41-13.99,2.59-19.12,4.75-8.12,12.47-9.81,21.18-7.67l168.36,41.36,50.29,12.66c8.86,2.23,13.14,12.97,12.31,20.9-1.19,11.34-8.72,17.1-19.09,18.57l-67.21,9.57-99.9,15.05ZM736.36,435.98c-17.28-21.35-16-47.12-.65-69.33,3.49-5.05,1.67-11.96-.57-17.02-3.01-6.78-8.6-10.91-16.12-10.97l-130.09,30.55-88.49,21.15c-9.36,2.24-14.6,12.27-14.44,21.01.15,8.2,5.69,18.84,15.18,20.33l122.63,19.22,93.52,14.54c5.1.79,11.26-.8,14.53-4.76,5.96-7.22,7.43-16.54,4.51-24.72ZM359.92,323.14l-20.93-29.7-36.18-50.64-67.08-95.03c-7.13-6.83-17.52-6.53-24.74-.14-4.06,3.61-6.59,8.12-6.61,13.73-5.06,21.34-22.18,37.82-44,41.47-8.9,1.49-15.28,9.84-15.61,18.63-.26,6.73,2.76,11.49,8.09,15.28l170.34,121.38c9.05,6.45,21.87,3.65,29.76-3.01,9.96-8.39,12.3-20.92,6.95-31.99ZM475.83,100.01c1.45-7.03-5.16-13.01-10.57-15.68-5.98-2.96-11.82-3.46-17.69-.49-21.16,18.18-50.27,17.69-72.4.6-7.06-5.45-17.89-2.03-24.69,3.23-5.54,4.28-6.79,10.57-5.44,16.94l4.4,20.78,42.3,189.76c3.92,7.82,11.14,12.22,19.55,11.76,6.91-.39,16.16-4.32,17.94-12.31l16.89-76,17.63-80.08,12.08-58.5ZM220.57,673.27c5.87.59,14.19.46,18.11-5.2l57.08-82.43,65.24-94.64c5.58-8.1,3.08-18.95-1.98-26.59-6.79-10.26-21.48-14.93-31.91-7.32l-43.22,31.5-130.36,95.11c-5.06,3.69-5.63,12.02-4.11,17.23,1.43,4.86,5.48,10.84,11.16,11.93,9.56,1.84,17.92,4.71,25.49,11.02,11.3,9.42,18.88,22.65,20.37,37.9,2.98,6.34,8.47,9.88,14.13,11.49ZM670.6,235.19c4.27-5.27,5.42-11.34,3.87-18.43-1.83-3.93-5.28-11.46-11.57-12.41-22.99-3.48-41.8-19.98-46.46-43.39-.77-3.86-1.72-7.49-4.88-10.23-6.95-7.89-18.64-8.29-26.07-.62l-94.09,141.91-25.74,38.51c-4.36,6.52-2.24,15.07,1.12,21.6,6.94,11.22,21.09,15.55,33.26,9.31l170.56-126.25ZM627.39,628.92c8.5-9.21,19.66-15.17,32.14-16.02,5.9-2.94,9.77-7.85,10.79-13.61.67-5.66.16-13.2-5.12-16.97l-173.99-123.91c-9.84-4.26-20.1-1.92-27.57,5.09-6.41,6.74-11.38,18.57-5.47,27.15l20.31,29.53,46.25,64.66,59.33,83.22c3.83,5.37,12.12,5.89,17.78,4.06,4.9-1.58,10.53-5.8,11.55-12.16,1.91-11.89,6.07-22.44,14.01-31.04ZM446.06,718.73c8.82,2.98,18.94-.68,24.05-8.46,2.53-3.86,2.45-7.76,1.53-12.11l-21.56-102.14-20.72-99.98c-4.28-9.31-14.41-13.61-24.33-11.88-9.55,1.66-16.39,8.65-17.2,18.49l-41.97,199.51,1.89,8.2c1.41,6.12,7.1,10.14,13.39,8.37,6.06,2.44,11.3.51,16.17-3.22,14.62-11.2,33.51-14.45,50.68-7.54,6.64,2.67,12.17,6.6,18.07,10.75ZM431.01,5.29c-16.69-9.81-37.41-5.55-49.76,9.23-11.06,13.24-12.46,31.97-3.35,46.94,5.38,8.83,14.38,15.26,24.57,17.46,23.9,5.14,45.17-10.91,48.05-33.48,2.08-16.35-5.39-31.84-19.51-40.15ZM186.74,134.75c-3.43-12.53-12.38-22.24-24.76-26.62-12.51-4.44-26.55-1.78-36.87,6.51-9.89,7.95-15.42,20.22-14.64,33.77,1.41,24.19,24.75,41.82,48.73,35.32,21.65-5.87,33.29-27.93,27.53-48.99ZM709.38,145.22c-.47-17.67-11.49-32.98-28.93-37.64-22.62-6.05-44.84,9.62-47.98,32.92-2.91,21.54,12.3,42.38,34.64,44.65,24.26,2.47,42.89-16.51,42.27-39.93ZM166.06,701.71c15.87-7.19,24.41-23.22,22.19-40.85-2.18-17.25-15.21-31.06-31.79-33.65-17.67-2.76-34.4,6.58-41.54,22.85-6.04,13.78-4.43,28.92,5.32,40.65,11.58,13.92,30.03,18.15,45.82,11ZM51.81,363.31c-12.41-4.77-26.28-2.23-36.54,5.93-13.22,10.51-18.34,27.1-13.44,43.34,5.43,18,22.94,29,41.35,26.71s32.44-16.98,33.55-36.21c1.03-17.76-8.74-33.54-24.92-39.77ZM804.81,371.15c-17.4-15.03-43.75-10.98-56.35,8.29-11.15,17.06-8.04,39.99,8.31,52.63,11.38,8.8,26.31,10.44,39.73,4.37,11.54-5.22,20.36-16.95,21.64-30.9,1.25-13.65-3.34-25.77-13.33-34.39ZM701.49,646.75c-9.22-16.88-28.39-24.05-46.33-17.05-12.58,4.9-21.29,16.43-23.64,29.78-2.22,12.59,1.06,25.09,10.06,34.32,9.33,9.58,22.57,13.28,36.44,9.99,10.77-2.56,21.8-11.16,26.02-23.48,3.9-11.39,2.93-23.54-2.54-33.55ZM447.31,756.68c-2.04-17.96-15.33-32.37-33.31-34.55-19.12-2.32-36.21,9.9-41.11,28.27-3.31,12.43-.98,25.35,7.53,35.38,7.5,8.83,19.35,14.67,32.34,13.55,21.78-1.89,36.96-21.54,34.55-42.64Z"/>
  </g>
</svg>